<svg width="2548" height="854" viewBox="0 0 2548 854" fill="none" xmlns="http://www.w3.org/2000/svg">
<path d="M2005.41 447.552C2006.08 460.544 2008.72 471.184 2013.31 479.472C2017.9 487.648 2023.89 493.696 2031.28 497.616C2038.68 501.424 2046.85 503.328 2055.81 503.328C2064.66 503.328 2072.78 501.984 2080.17 499.296C2087.56 496.608 2095.07 492.688 2102.68 487.536L2117.3 507.864C2109.01 514.472 2099.44 519.736 2088.57 523.656C2077.71 527.464 2066.45 529.368 2054.8 529.368C2037.11 529.368 2022.04 525.504 2009.61 517.776C1997.29 509.936 1987.88 499.072 1981.39 485.184C1975 471.296 1971.81 455.168 1971.81 436.8C1971.81 418.992 1975 403.088 1981.39 389.088C1987.88 375.088 1997.01 364.056 2008.77 355.992C2020.53 347.928 2034.53 343.896 2050.77 343.896C2066 343.896 2079.11 347.424 2090.08 354.48C2101.17 361.536 2109.68 371.616 2115.62 384.72C2121.56 397.712 2124.52 413.28 2124.52 431.424C2124.52 434.448 2124.47 437.36 2124.36 440.16C2124.24 442.96 2124.08 445.424 2123.85 447.552H2005.41ZM2051.11 369.096C2038.56 369.096 2028.09 373.576 2019.69 382.536C2011.4 391.496 2006.64 405.328 2005.41 424.032H2093.44C2093.11 406.112 2089.19 392.504 2081.68 383.208C2074.29 373.8 2064.1 369.096 2051.11 369.096Z" fill="#35566B"/>
<path d="M1880.38 502.152C1889.01 502.152 1897.01 500.696 1904.41 497.784C1911.91 494.872 1918.91 491.176 1925.41 486.696L1940.86 507.696C1933.13 514.304 1923.78 519.568 1912.81 523.488C1901.83 527.408 1890.85 529.368 1879.88 529.368C1862.07 529.368 1846.84 525.56 1834.18 517.944C1821.64 510.328 1812.06 499.632 1805.45 485.856C1798.85 472.08 1795.54 455.952 1795.54 437.472C1795.54 419.552 1798.85 403.536 1805.45 389.424C1812.17 375.312 1821.86 364.224 1834.52 356.16C1847.18 347.984 1862.46 343.896 1880.38 343.896C1892.03 343.896 1902.84 345.688 1912.81 349.272C1922.89 352.744 1932.13 357.896 1940.53 364.728L1925.24 385.728C1917.96 380.688 1910.62 376.88 1903.23 374.304C1895.84 371.616 1888.28 370.272 1880.55 370.272C1865.77 370.272 1853.67 375.76 1844.26 386.736C1834.86 397.712 1830.15 414.624 1830.15 437.472C1830.15 452.704 1832.28 465.08 1836.53 474.6C1840.9 484.12 1846.89 491.12 1854.51 495.6C1862.13 499.968 1870.75 502.152 1880.38 502.152Z" fill="#35566B"/>
<path d="M1616.75 525.168V348.096H1644.47L1646.83 371.952C1654.11 362.88 1662.95 355.936 1673.37 351.12C1683.9 346.304 1694.37 343.896 1704.79 343.896C1721.81 343.896 1734.35 348.544 1742.42 357.84C1750.48 367.024 1754.51 379.848 1754.51 396.312V525.168H1722.26V416.136C1722.26 404.936 1721.59 395.864 1720.24 388.92C1719.01 381.864 1716.38 376.768 1712.35 373.632C1708.31 370.496 1702.21 368.928 1694.03 368.928C1687.65 368.928 1681.6 370.328 1675.89 373.128C1670.18 375.928 1665.03 379.456 1660.43 383.712C1655.95 387.968 1652.15 392.392 1649.01 396.984V525.168H1616.75Z" fill="#35566B"/>
<path d="M1461.49 447.552C1462.16 460.544 1464.79 471.184 1469.38 479.472C1473.97 487.648 1479.97 493.696 1487.36 497.616C1494.75 501.424 1502.93 503.328 1511.89 503.328C1520.73 503.328 1528.85 501.984 1536.25 499.296C1543.64 496.608 1551.14 492.688 1558.76 487.536L1573.37 507.864C1565.09 514.472 1555.51 519.736 1544.65 523.656C1533.78 527.464 1522.53 529.368 1510.88 529.368C1493.18 529.368 1478.12 525.504 1465.69 517.776C1453.37 509.936 1443.96 499.072 1437.46 485.184C1431.08 471.296 1427.89 455.168 1427.89 436.8C1427.89 418.992 1431.08 403.088 1437.46 389.088C1443.96 375.088 1453.09 364.056 1464.85 355.992C1476.61 347.928 1490.61 343.896 1506.85 343.896C1522.08 343.896 1535.18 347.424 1546.16 354.48C1557.25 361.536 1565.76 371.616 1571.69 384.72C1577.63 397.712 1580.6 413.28 1580.6 431.424C1580.6 434.448 1580.54 437.36 1580.43 440.16C1580.32 442.96 1580.15 445.424 1579.93 447.552H1461.49ZM1507.18 369.096C1494.64 369.096 1484.17 373.576 1475.77 382.536C1467.48 391.496 1462.72 405.328 1461.49 424.032H1549.52C1549.18 406.112 1545.26 392.504 1537.76 383.208C1530.37 373.8 1520.17 369.096 1507.18 369.096Z" fill="#35566B"/>
<path d="M1359.3 273L1391.56 276.864V525.168H1363.17L1360.48 502.488C1354.21 511.448 1346.82 518.168 1338.3 522.648C1329.79 527.128 1320.5 529.368 1310.42 529.368C1295.18 529.368 1282.58 525.504 1272.62 517.776C1262.76 509.936 1255.42 499.072 1250.61 485.184C1245.79 471.296 1243.38 455.168 1243.38 436.8C1243.38 418.88 1246.13 402.976 1251.62 389.088C1257.22 375.088 1265.17 364.056 1275.47 355.992C1285.89 347.928 1298.43 343.896 1313.1 343.896C1322.85 343.896 1331.53 345.632 1339.14 349.104C1346.76 352.464 1353.48 357.448 1359.3 364.056V273ZM1321.5 369.264C1307.73 369.264 1297.03 374.808 1289.42 385.896C1281.8 396.984 1277.99 413.952 1277.99 436.8C1277.99 451.92 1279.56 464.464 1282.7 474.432C1285.83 484.4 1290.37 491.792 1296.3 496.608C1302.24 501.424 1309.52 503.832 1318.14 503.832C1327.44 503.832 1335.45 501.144 1342.17 495.768C1349 490.392 1354.71 484.176 1359.3 477.12V390.6C1354.71 383.88 1349.17 378.672 1342.67 374.976C1336.29 371.168 1329.23 369.264 1321.5 369.264Z" fill="#35566B"/>
<path d="M1203.36 484.512C1203.36 491.568 1204.48 496.72 1206.72 499.968C1208.96 503.104 1212.49 505.456 1217.31 507.024L1209.75 529.2C1201.68 528.192 1194.68 525.784 1188.75 521.976C1182.81 518.168 1178.39 512.344 1175.48 504.504C1169.09 512.68 1161.03 518.896 1151.28 523.152C1141.54 527.296 1130.96 529.368 1119.53 529.368C1101.72 529.368 1087.67 524.328 1077.36 514.248C1067.06 504.168 1061.91 490.896 1061.91 474.432C1061.91 455.952 1069.08 441.784 1083.41 431.928C1097.86 422.072 1118.58 417.144 1145.57 417.144H1171.28V403.704C1171.28 391.496 1167.64 382.816 1160.36 377.664C1153.19 372.512 1143.16 369.936 1130.28 369.936C1124.46 369.936 1117.52 370.664 1109.45 372.12C1101.39 373.576 1092.82 375.872 1083.75 379.008L1075.52 355.488C1086.49 351.344 1096.96 348.376 1106.93 346.584C1117.01 344.792 1126.42 343.896 1135.16 343.896C1158 343.896 1175.08 349.104 1186.4 359.52C1197.71 369.824 1203.36 383.992 1203.36 402.024V484.512ZM1128.6 505.176C1136.89 505.176 1144.84 503.048 1152.46 498.792C1160.08 494.536 1166.35 488.6 1171.28 480.984V438.144H1147.76C1129.05 438.144 1115.78 441.336 1107.94 447.72C1100.1 453.992 1096.18 462.616 1096.18 473.592C1096.18 483.896 1098.87 491.736 1104.24 497.112C1109.62 502.488 1117.74 505.176 1128.6 505.176Z" fill="#35566B"/>
<path d="M973.84 502.152C982.464 502.152 990.472 500.696 997.864 497.784C1005.37 494.872 1012.37 491.176 1018.86 486.696L1034.32 507.696C1026.59 514.304 1017.24 519.568 1006.26 523.488C995.288 527.408 984.312 529.368 973.336 529.368C955.528 529.368 940.296 525.56 927.64 517.944C915.096 510.328 905.52 499.632 898.912 485.856C892.304 472.08 889 455.952 889 437.472C889 419.552 892.304 403.536 898.912 389.424C905.632 375.312 915.32 364.224 927.976 356.16C940.632 347.984 955.92 343.896 973.84 343.896C985.488 343.896 996.296 345.688 1006.26 349.272C1016.34 352.744 1025.58 357.896 1033.98 364.728L1018.7 385.728C1011.42 380.688 1004.08 376.88 996.688 374.304C989.296 371.616 981.736 370.272 974.008 370.272C959.224 370.272 947.128 375.76 937.72 386.736C928.312 397.712 923.608 414.624 923.608 437.472C923.608 452.704 925.736 465.08 929.992 474.6C934.36 484.12 940.352 491.12 947.968 495.6C955.584 499.968 964.208 502.152 973.84 502.152Z" fill="#35566B"/>
<path fill-rule="evenodd" clip-rule="evenodd" d="M601.815 252.89C589.698 254.255 578.297 257.562 564.484 263.721C557.102 267.01 557.955 266.935 557.493 264.347C556.383 258.129 550.345 254.607 543.977 256.464C537.009 258.496 531.073 266.901 529.672 276.721L528.981 281.556L523.872 286.391C474.701 332.933 424.953 415.094 420.195 457.617C418.819 469.928 424.751 476.39 437.432 476.39C445.011 476.39 447.376 474.849 454.956 464.977C458.584 460.253 479.641 438.845 480.66 438.845C480.967 438.845 481.283 453.541 481.429 474.54C481.687 511.855 481.821 514.115 484.445 525.312C495.89 574.15 533.112 607.22 586.201 615.718C665.842 628.465 732.667 586.745 743.76 517.348C745.744 504.946 746.84 395.422 745.211 372.573C739.824 297.04 676.801 244.44 601.815 252.89ZM607.528 264.699C622.235 270.267 621.863 292.2 606.933 299.765C602.635 301.944 598.03 303.049 595.086 302.609L592.467 302.217L596.136 300.266C613.152 291.214 614.673 272.434 598.387 272.464C590.742 272.48 585.351 275.38 577.156 283.884C569.1 292.243 564.554 291.378 569.058 282.344C576.312 267.782 594.112 259.62 607.528 264.699ZM550.395 339.318C585.965 345.096 617.701 362.356 635.6 385.656C658.084 414.926 664.039 455.357 650.03 483.642C646.407 490.958 646.1 491.187 645.6 486.949C639.416 434.565 583.286 389.135 536.862 398.941C510.64 404.479 473.524 429.972 452.531 456.861C450.418 459.568 450.058 459.817 449.556 458.922C448.094 456.309 443.465 452.469 440.986 451.808C437.787 450.956 437.764 451.214 441.66 444.62C456.815 418.972 476.228 396.242 502.773 373.062C511.8 365.181 513.277 363.646 514.513 360.868C515.031 359.703 515.519 359.309 516.116 359.577C524.298 363.252 538.368 355.757 534.896 349.574C533.284 346.702 530.175 346.705 523.135 349.586C517.305 351.971 515.841 344.843 521.357 340.931C525.622 337.906 537.613 337.241 550.395 339.318Z" fill="#35566B"/>
</svg>
