<svg width="1793" height="651" viewBox="0 0 1793 651" fill="none" xmlns="http://www.w3.org/2000/svg">
<path d="M1395.41 338.552C1396.08 351.544 1398.72 362.184 1403.31 370.472C1407.9 378.648 1413.89 384.696 1421.28 388.616C1428.68 392.424 1436.85 394.328 1445.81 394.328C1454.66 394.328 1462.78 392.984 1470.17 390.296C1477.56 387.608 1485.07 383.688 1492.68 378.536L1507.3 398.864C1499.01 405.472 1489.44 410.736 1478.57 414.656C1467.71 418.464 1456.45 420.368 1444.8 420.368C1427.11 420.368 1412.04 416.504 1399.61 408.776C1387.29 400.936 1377.88 390.072 1371.39 376.184C1365 362.296 1361.81 346.168 1361.81 327.8C1361.81 309.992 1365 294.088 1371.39 280.088C1377.88 266.088 1387.01 255.056 1398.77 246.992C1410.53 238.928 1424.53 234.896 1440.77 234.896C1456 234.896 1469.11 238.424 1480.08 245.48C1491.17 252.536 1499.68 262.616 1505.62 275.72C1511.56 288.712 1514.52 304.28 1514.52 322.424C1514.52 325.448 1514.47 328.36 1514.36 331.16C1514.24 333.96 1514.08 336.424 1513.85 338.552H1395.41ZM1441.11 260.096C1428.56 260.096 1418.09 264.576 1409.69 273.536C1401.4 282.496 1396.64 296.328 1395.41 315.032H1483.44C1483.11 297.112 1479.19 283.504 1471.68 274.208C1464.29 264.8 1454.1 260.096 1441.11 260.096Z" fill="#35566B"/>
<path d="M1270.38 393.152C1279.01 393.152 1287.01 391.696 1294.41 388.784C1301.91 385.872 1308.91 382.176 1315.41 377.696L1330.86 398.696C1323.13 405.304 1313.78 410.568 1302.81 414.488C1291.83 418.408 1280.85 420.368 1269.88 420.368C1252.07 420.368 1236.84 416.56 1224.18 408.944C1211.64 401.328 1202.06 390.632 1195.45 376.856C1188.85 363.08 1185.54 346.952 1185.54 328.472C1185.54 310.552 1188.85 294.536 1195.45 280.424C1202.17 266.312 1211.86 255.224 1224.52 247.16C1237.18 238.984 1252.46 234.896 1270.38 234.896C1282.03 234.896 1292.84 236.688 1302.81 240.272C1312.89 243.744 1322.13 248.896 1330.53 255.728L1315.24 276.728C1307.96 271.688 1300.62 267.88 1293.23 265.304C1285.84 262.616 1278.28 261.272 1270.55 261.272C1255.77 261.272 1243.67 266.76 1234.26 277.736C1224.86 288.712 1220.15 305.624 1220.15 328.472C1220.15 343.704 1222.28 356.08 1226.53 365.6C1230.9 375.12 1236.89 382.12 1244.51 386.6C1252.13 390.968 1260.75 393.152 1270.38 393.152Z" fill="#35566B"/>
<path d="M1006.75 416.168V239.096H1034.47L1036.83 262.952C1044.11 253.88 1052.95 246.936 1063.37 242.12C1073.9 237.304 1084.37 234.896 1094.79 234.896C1111.81 234.896 1124.35 239.544 1132.42 248.84C1140.48 258.024 1144.51 270.848 1144.51 287.312V416.168H1112.26V307.136C1112.26 295.936 1111.59 286.864 1110.24 279.92C1109.01 272.864 1106.38 267.768 1102.35 264.632C1098.31 261.496 1092.21 259.928 1084.03 259.928C1077.65 259.928 1071.6 261.328 1065.89 264.128C1060.18 266.928 1055.03 270.456 1050.43 274.712C1045.95 278.968 1042.15 283.392 1039.01 287.984V416.168H1006.75Z" fill="#35566B"/>
<path d="M851.486 338.552C852.158 351.544 854.79 362.184 859.382 370.472C863.974 378.648 869.966 384.696 877.358 388.616C884.75 392.424 892.926 394.328 901.886 394.328C910.734 394.328 918.854 392.984 926.246 390.296C933.638 387.608 941.142 383.688 948.758 378.536L963.374 398.864C955.086 405.472 945.51 410.736 934.646 414.656C923.782 418.464 912.526 420.368 900.878 420.368C883.182 420.368 868.118 416.504 855.686 408.776C843.366 400.936 833.958 390.072 827.462 376.184C821.078 362.296 817.886 346.168 817.886 327.8C817.886 309.992 821.078 294.088 827.462 280.088C833.958 266.088 843.086 255.056 854.846 246.992C866.606 238.928 880.606 234.896 896.846 234.896C912.078 234.896 925.182 238.424 936.158 245.48C947.246 252.536 955.758 262.616 961.694 275.72C967.63 288.712 970.598 304.28 970.598 322.424C970.598 325.448 970.542 328.36 970.43 331.16C970.318 333.96 970.15 336.424 969.926 338.552H851.486ZM897.182 260.096C884.638 260.096 874.166 264.576 865.766 273.536C857.478 282.496 852.718 296.328 851.486 315.032H939.518C939.182 297.112 935.262 283.504 927.758 274.208C920.366 264.8 910.174 260.096 897.182 260.096Z" fill="#35566B"/>
<path d="M749.305 164L781.561 167.864V416.168H753.169L750.481 393.488C744.209 402.448 736.817 409.168 728.305 413.648C719.793 418.128 710.497 420.368 700.417 420.368C685.185 420.368 672.585 416.504 662.617 408.776C652.761 400.936 645.425 390.072 640.609 376.184C635.793 362.296 633.385 346.168 633.385 327.8C633.385 309.88 636.129 293.976 641.617 280.088C647.217 266.088 655.169 255.056 665.473 246.992C675.889 238.928 688.433 234.896 703.105 234.896C712.849 234.896 721.529 236.632 729.145 240.104C736.761 243.464 743.481 248.448 749.305 255.056V164ZM711.505 260.264C697.729 260.264 687.033 265.808 679.417 276.896C671.801 287.984 667.993 304.952 667.993 327.8C667.993 342.92 669.561 355.464 672.697 365.432C675.833 375.4 680.369 382.792 686.305 387.608C692.241 392.424 699.521 394.832 708.145 394.832C717.441 394.832 725.449 392.144 732.169 386.768C739.001 381.392 744.713 375.176 749.305 368.12V281.6C744.713 274.88 739.169 269.672 732.673 265.976C726.289 262.168 719.233 260.264 711.505 260.264Z" fill="#35566B"/>
<path d="M593.364 375.512C593.364 382.568 594.484 387.72 596.724 390.968C598.964 394.104 602.492 396.456 607.308 398.024L599.748 420.2C591.684 419.192 584.684 416.784 578.748 412.976C572.812 409.168 568.388 403.344 565.476 395.504C559.092 403.68 551.028 409.896 541.284 414.152C531.54 418.296 520.956 420.368 509.532 420.368C491.724 420.368 477.668 415.328 467.364 405.248C457.06 395.168 451.908 381.896 451.908 365.432C451.908 346.952 459.076 332.784 473.412 322.928C487.86 313.072 508.58 308.144 535.572 308.144H561.276V294.704C561.276 282.496 557.636 273.816 550.356 268.664C543.188 263.512 533.164 260.936 520.284 260.936C514.46 260.936 507.516 261.664 499.452 263.12C491.388 264.576 482.82 266.872 473.748 270.008L465.516 246.488C476.492 242.344 486.964 239.376 496.932 237.584C507.012 235.792 516.42 234.896 525.156 234.896C548.004 234.896 565.084 240.104 576.396 250.52C587.708 260.824 593.364 274.992 593.364 293.024V375.512ZM518.604 396.176C526.892 396.176 534.844 394.048 542.46 389.792C550.076 385.536 556.348 379.6 561.276 371.984V329.144H537.756C519.052 329.144 505.78 332.336 497.94 338.72C490.1 344.992 486.18 353.616 486.18 364.592C486.18 374.896 488.868 382.736 494.244 388.112C499.62 393.488 507.74 396.176 518.604 396.176Z" fill="#35566B"/>
<path d="M363.84 393.152C372.464 393.152 380.472 391.696 387.864 388.784C395.368 385.872 402.368 382.176 408.864 377.696L424.32 398.696C416.592 405.304 407.24 410.568 396.264 414.488C385.288 418.408 374.312 420.368 363.336 420.368C345.528 420.368 330.296 416.56 317.64 408.944C305.096 401.328 295.52 390.632 288.912 376.856C282.304 363.08 279 346.952 279 328.472C279 310.552 282.304 294.536 288.912 280.424C295.632 266.312 305.32 255.224 317.976 247.16C330.632 238.984 345.92 234.896 363.84 234.896C375.488 234.896 386.296 236.688 396.264 240.272C406.344 243.744 415.584 248.896 423.984 255.728L408.696 276.728C401.416 271.688 394.08 267.88 386.688 265.304C379.296 262.616 371.736 261.272 364.008 261.272C349.224 261.272 337.128 266.76 327.72 277.736C318.312 288.712 313.608 305.624 313.608 328.472C313.608 343.704 315.736 356.08 319.992 365.6C324.36 375.12 330.352 382.12 337.968 386.6C345.584 390.968 354.208 393.152 363.84 393.152Z" fill="#35566B"/>
</svg>
