<svg width="335" height="133" viewBox="0 0 335 133" fill="none" xmlns="http://www.w3.org/2000/svg">
<path d="M289.021 68.8896C289.137 71.1411 289.594 72.9851 290.39 74.4214C291.187 75.8383 292.226 76.8864 293.509 77.5658C294.791 78.2257 296.209 78.5557 297.763 78.5557C299.298 78.5557 300.707 78.3228 301.989 77.8569C303.271 77.3911 304.573 76.7117 305.894 75.8189L308.43 79.3418C306.992 80.487 305.331 81.3992 303.446 82.0786C301.562 82.7385 299.609 83.0685 297.589 83.0685C294.519 83.0685 291.906 82.3988 289.749 81.0596C287.612 79.7009 285.98 77.8181 284.853 75.4113C283.746 73.0045 283.192 70.2095 283.192 67.0262C283.192 63.9401 283.746 61.1839 284.853 58.7576C285.98 56.3314 287.563 54.4195 289.603 53.022C291.643 51.6245 294.072 50.9258 296.889 50.9258C299.531 50.9258 301.805 51.5372 303.709 52.76C305.632 53.9828 307.109 55.7297 308.138 58.0007C309.168 60.2522 309.683 62.9502 309.683 66.0946C309.683 66.6186 309.673 67.1233 309.654 67.6085C309.634 68.0938 309.605 68.5208 309.566 68.8896H289.021ZM296.947 55.293C294.771 55.293 292.955 56.0694 291.498 57.6222C290.06 59.175 289.234 61.5721 289.021 64.8135H304.291C304.233 61.7079 303.553 59.3496 302.251 57.7386C300.969 56.1082 299.201 55.293 296.947 55.293Z" fill="#00263E"/>
<path d="M267.332 78.3519C268.828 78.3519 270.217 78.0996 271.499 77.5949C272.801 77.0902 274.015 76.4497 275.142 75.6733L277.823 79.3127C276.483 80.4578 274.86 81.3701 272.956 82.0495C271.052 82.7288 269.148 83.0685 267.244 83.0685C264.155 83.0685 261.513 82.4085 259.317 81.0887C257.141 79.7688 255.48 77.9152 254.334 75.5277C253.188 73.1403 252.615 70.3453 252.615 67.1427C252.615 64.0371 253.188 61.2615 254.334 58.8159C255.5 56.3702 257.18 54.4487 259.376 53.0512C261.571 51.6342 264.223 50.9258 267.332 50.9258C269.352 50.9258 271.227 51.2363 272.956 51.8575C274.705 52.4592 276.308 53.352 277.765 54.536L275.113 58.1754C273.85 57.3019 272.577 56.642 271.295 56.1955C270.013 55.7297 268.701 55.4968 267.361 55.4968C264.796 55.4968 262.698 56.4479 261.066 58.35C259.434 60.2522 258.618 63.1831 258.618 67.1427C258.618 69.7824 258.987 71.9272 259.725 73.5771C260.483 75.2269 261.523 76.44 262.844 77.2164C264.165 77.9734 265.661 78.3519 267.332 78.3519Z" fill="#00263E"/>
<path d="M221.6 82.3406V51.6536H226.409L226.817 55.7879C228.08 54.2157 229.615 53.0123 231.421 52.1777C233.248 51.3431 235.064 50.9258 236.871 50.9258C239.824 50.9258 242 51.7313 243.399 53.3423C244.798 54.9339 245.497 57.1563 245.497 60.0096V82.3406H239.902V63.4451C239.902 61.5041 239.785 59.9319 239.552 58.7285C239.339 57.5057 238.882 56.6226 238.183 56.0791C237.483 55.5356 236.424 55.2639 235.006 55.2639C233.899 55.2639 232.849 55.5065 231.859 55.9917C230.868 56.477 229.974 57.0884 229.177 57.826C228.4 58.5635 227.74 59.3302 227.196 60.126V82.3406H221.6Z" fill="#00263E"/>
<path d="M194.666 68.8896C194.782 71.1411 195.239 72.9851 196.036 74.4214C196.832 75.8383 197.872 76.8864 199.154 77.5658C200.436 78.2257 201.854 78.5557 203.409 78.5557C204.944 78.5557 206.352 78.3228 207.634 77.8569C208.917 77.3911 210.218 76.7117 211.54 75.8189L214.075 79.3418C212.637 80.487 210.976 81.3992 209.092 82.0786C207.207 82.7385 205.254 83.0685 203.234 83.0685C200.164 83.0685 197.551 82.3988 195.394 81.0596C193.257 79.7009 191.625 77.8181 190.498 75.4113C189.391 73.0045 188.837 70.2095 188.837 67.0262C188.837 63.9401 189.391 61.1839 190.498 58.7576C191.625 56.3314 193.209 54.4195 195.249 53.022C197.289 51.6245 199.717 50.9258 202.534 50.9258C205.177 50.9258 207.45 51.5372 209.354 52.76C211.277 53.9828 212.754 55.7297 213.784 58.0007C214.813 60.2522 215.328 62.9502 215.328 66.0946C215.328 66.6186 215.318 67.1233 215.299 67.6085C215.28 68.0938 215.25 68.5208 215.212 68.8896H194.666ZM202.593 55.293C200.417 55.293 198.6 56.0694 197.143 57.6222C195.705 59.175 194.88 61.5721 194.666 64.8135H209.937C209.878 61.7079 209.198 59.3496 207.897 57.7386C206.614 56.1082 204.846 55.293 202.593 55.293Z" fill="#00263E"/>
<path d="M176.941 38.6392L182.536 39.3088V82.3404H177.611L177.145 78.4099C176.057 79.9627 174.774 81.1273 173.298 81.9037C171.821 82.6801 170.209 83.0683 168.46 83.0683C165.818 83.0683 163.632 82.3986 161.903 81.0594C160.193 79.7007 158.921 77.8179 158.085 75.4111C157.25 73.0043 156.832 70.2093 156.832 67.026C156.832 63.9205 157.308 61.1643 158.26 58.7575C159.232 56.3312 160.611 54.4194 162.398 53.0218C164.205 51.6243 166.381 50.9256 168.926 50.9256C170.617 50.9256 172.122 51.2264 173.444 51.8281C174.765 52.4104 175.93 53.2742 176.941 54.4194V38.6392ZM170.384 55.3219C167.994 55.3219 166.138 56.2827 164.817 58.2043C163.496 60.1258 162.836 63.0664 162.836 67.026C162.836 69.6464 163.108 71.8203 163.652 73.5478C164.196 75.2752 164.982 76.5563 166.012 77.3909C167.042 78.2255 168.305 78.6428 169.801 78.6428C171.413 78.6428 172.802 78.177 173.968 77.2453C175.153 76.3137 176.144 75.2364 176.941 74.0136V59.0195C176.144 57.8549 175.182 56.9523 174.056 56.3118C172.948 55.6519 171.724 55.3219 170.384 55.3219Z" fill="#00263E"/>
<path d="M149.89 75.2948C149.89 76.5177 150.084 77.4105 150.473 77.9734C150.861 78.5169 151.473 78.9245 152.309 79.1962L150.997 83.0394C149.598 82.8647 148.384 82.4474 147.354 81.7874C146.325 81.1275 145.557 80.1182 145.052 78.7595C143.945 80.1764 142.546 81.2537 140.855 81.9912C139.165 82.7094 137.329 83.0685 135.347 83.0685C132.258 83.0685 129.82 82.195 128.033 80.4481C126.245 78.7013 125.351 76.4012 125.351 73.5479C125.351 70.3453 126.595 67.89 129.082 66.1819C131.588 64.4738 135.182 63.6198 139.865 63.6198H144.323V61.2906C144.323 59.175 143.692 57.6707 142.429 56.7778C141.186 55.885 139.447 55.4386 137.213 55.4386C136.202 55.4386 134.998 55.5647 133.599 55.8171C132.2 56.0694 130.714 56.4673 129.14 57.0108L127.712 52.9347C129.616 52.2165 131.433 51.7022 133.162 51.3916C134.91 51.0811 136.542 50.9258 138.058 50.9258C142.021 50.9258 144.984 51.8283 146.946 53.6335C148.909 55.4192 149.89 57.8745 149.89 60.9995V75.2948ZM136.921 78.8759C138.359 78.8759 139.738 78.5072 141.059 77.7696C142.381 77.032 143.469 76.0033 144.323 74.6834V67.2592H140.243C136.999 67.2592 134.697 67.8123 133.337 68.9187C131.977 70.0057 131.297 71.5002 131.297 73.4024C131.297 75.1881 131.763 76.5468 132.695 77.4784C133.628 78.4101 135.037 78.8759 136.921 78.8759Z" fill="#00263E"/>
<path d="M110.074 78.3519C111.57 78.3519 112.959 78.0996 114.242 77.5949C115.543 77.0902 116.758 76.4497 117.885 75.6733L120.566 79.3127C119.225 80.4578 117.603 81.3701 115.699 82.0495C113.795 82.7288 111.891 83.0685 109.987 83.0685C106.898 83.0685 104.255 82.4085 102.06 81.0887C99.884 79.7688 98.2229 77.9152 97.0766 75.5277C95.9303 73.1403 95.3572 70.3453 95.3572 67.1427C95.3572 64.0371 95.9303 61.2615 97.0766 58.8159C98.2423 56.3702 99.9229 54.4487 102.118 53.0512C104.314 51.6342 106.966 50.9258 110.074 50.9258C112.095 50.9258 113.97 51.2363 115.699 51.8575C117.447 52.4592 119.05 53.352 120.507 54.536L117.855 58.1754C116.593 57.3019 115.32 56.642 114.038 56.1955C112.755 55.7297 111.444 55.4968 110.103 55.4968C107.539 55.4968 105.441 56.4479 103.809 58.35C102.177 60.2522 101.361 63.1831 101.361 67.1427C101.361 69.7824 101.73 71.9272 102.468 73.5771C103.226 75.2269 104.265 76.44 105.586 77.2164C106.907 77.9734 108.403 78.3519 110.074 78.3519Z" fill="#00263E"/>
<path fill-rule="evenodd" clip-rule="evenodd" d="M45.5394 35.1543C43.4374 35.3908 41.4597 35.9639 39.0636 37.0312C37.7831 37.6013 37.931 37.5882 37.8508 37.1397C37.6583 36.0621 36.6109 35.4519 35.5062 35.7736C34.2975 36.1257 33.2677 37.5824 33.0247 39.2842L32.9049 40.1221L32.0187 40.96C23.489 49.0259 14.8591 63.2645 14.0338 70.6338C13.7951 72.7674 14.8241 73.8872 17.0238 73.8872C18.3386 73.8872 18.7488 73.6202 20.0639 71.9093C20.6931 71.0906 24.3458 67.3807 24.5226 67.3807C24.5759 67.3807 24.6307 69.9274 24.6561 73.5667C24.7008 80.0333 24.7241 80.425 25.1793 82.3655C27.1646 90.8292 33.6214 96.5604 42.8308 98.0331C56.6461 100.242 68.2381 93.012 70.1625 80.9853C70.5065 78.8361 70.6968 59.8554 70.4142 55.8956C69.4798 42.8056 58.5472 33.6898 45.5394 35.1543ZM46.5304 37.2008C49.0815 38.1657 49.0171 41.9667 46.4272 43.2778C45.6815 43.6553 44.8828 43.8469 44.3721 43.7707L43.9177 43.7028L44.5542 43.3646C47.506 41.7958 47.7698 38.5412 44.9447 38.5465C43.6185 38.5493 42.6833 39.0517 41.2618 40.5256C39.8643 41.9743 39.0758 41.8244 39.857 40.2586C41.1154 37.7351 44.2031 36.3205 46.5304 37.2008ZM36.6195 50.1323C42.7899 51.1337 48.295 54.1249 51.4 58.1629C55.3004 63.2354 56.3332 70.2422 53.9031 75.1441C53.2747 76.412 53.2214 76.4516 53.1346 75.7172C52.0619 66.639 42.3251 58.7659 34.2719 60.4651C29.7233 61.4249 23.2848 65.843 19.6432 70.5029C19.2766 70.972 19.2142 71.0152 19.1271 70.86C18.8734 70.4072 18.0704 69.7417 17.6404 69.6271C17.0855 69.4795 17.0814 69.5241 17.7573 68.3814C20.3863 63.9365 23.7539 59.9974 28.3586 55.9804C29.9245 54.6145 30.1808 54.3485 30.3951 53.867C30.485 53.6651 30.5697 53.5969 30.6732 53.6434C32.0925 54.2801 34.5332 52.9814 33.9309 51.9098C33.6513 51.4121 33.1119 51.4126 31.8908 51.9118C30.8795 52.3252 30.6255 51.0898 31.5823 50.412C32.3221 49.8878 34.4023 49.7724 36.6195 50.1323Z" fill="#00263E"/>
</svg>
